HIERARCHY
ROOT Hips
{
	OFFSET 0.000000 97.167313 0.000000
	CHANNELS 6 Xposition Yposition Zposition Xrotation Yrotation Zrotation
	JOINT Spine
	{
		OFFSET 0.000000 13.784798 0.064400
		CHANNELS 3 Xrotation Yrotation Zrotation
		JOINT Spine1
		{
			OFFSET 0.000000 12.037903 0.404700
			CHANNELS 3 Xrotation Yrotation Zrotation
			JOINT Spine2
			{
				OFFSET 0.000000 17.795601 0.420200
				CHANNELS 3 Xrotation Yrotation Zrotation
				JOINT Neck
				{
					OFFSET 0.000000 39.131302 11.954600
					CHANNELS 3 Xrotation Yrotation Zrotation
					JOINT Head
					{
						OFFSET 0.000000 14.456192 15.627699
						CHANNELS 3 Xrotation Yrotation Zrotation
						JOINT HeadTop_End
						{
							OFFSET 0.000000 15.703506 7.603401
							CHANNELS 3 Xrotation Yrotation Zrotation
							End Site
							{
								OFFSET 0.000000 17.447403 0.000000
							}
						}
					}
				}
				JOINT LeftShoulder
				{
					OFFSET 17.399500 24.608795 1.168800
					CHANNELS 3 Xrotation Yrotation Zrotation
					JOINT LeftArm
					{
						OFFSET 18.980635 5.765305 1.818600
						CHANNELS 3 Xrotation Yrotation Zrotation
						JOINT LeftForeArm
						{
							OFFSET 49.290169 0.000000 0.000000
							CHANNELS 3 Xrotation Yrotation Zrotation
							JOINT LeftHand
							{
								OFFSET 31.562012 0.000000 0.000000
								CHANNELS 3 Xrotation Yrotation Zrotation
								JOINT LeftHandThumb1
								{
									OFFSET 6.133995 -4.388519 7.076070
									CHANNELS 3 Xrotation Yrotation Zrotation
									JOINT LeftHandThumb2
									{
										OFFSET 6.037666 -3.485840 3.485847
										CHANNELS 3 Xrotation Yrotation Zrotation
										JOINT LeftHandThumb3
										{
											OFFSET 6.496506 -3.750763 3.750761
											CHANNELS 3 Xrotation Yrotation Zrotation
											JOINT LeftHandThumb4
											{
												OFFSET 5.616882 -3.242905 3.242910
												CHANNELS 3 Xrotation Yrotation Zrotation
												End Site
												{
													OFFSET -1.254608 7.132141 0.375429
												}
											}
										}
									}
								}
								JOINT LeftHandPinky1
								{
									OFFSET 18.920792 -0.453171 -11.426712
									CHANNELS 3 Xrotation Yrotation Zrotation
									JOINT LeftHandPinky2
									{
										OFFSET 4.919586 0.000000 0.000000
										CHANNELS 3 Xrotation Yrotation Zrotation
										JOINT LeftHandPinky3
										{
											OFFSET 5.233047 0.000000 0.000000
											CHANNELS 3 Xrotation Yrotation Zrotation
											JOINT LeftHandPinky4
											{
												OFFSET 5.571716 0.000000 0.000000
												CHANNELS 3 Xrotation Yrotation Zrotation
												End Site
												{
													OFFSET -3.459808 4.342407 -0.466164
												}
											}
										}
									}
								}
								JOINT LeftHandRing1
								{
									OFFSET 22.726120 -0.094986 -6.500475
									CHANNELS 3 Xrotation Yrotation Zrotation
									JOINT LeftHandRing2
									{
										OFFSET 6.408615 0.000000 0.000000
										CHANNELS 3 Xrotation Yrotation Zrotation
										JOINT LeftHandRing3
										{
											OFFSET 6.150223 0.000000 0.000000
											CHANNELS 3 Xrotation Yrotation Zrotation
											JOINT LeftHandRing4
											{
												OFFSET 6.145386 0.000000 0.000000
												CHANNELS 3 Xrotation Yrotation Zrotation
												End Site
												{
													OFFSET -3.671402 4.923981 -0.202372
												}
											}
										}
									}
								}
								JOINT LeftHandMiddle1
								{
									OFFSET 23.373947 0.000000 0.000001
									CHANNELS 3 Xrotation Yrotation Zrotation
									JOINT LeftHandMiddle2
									{
										OFFSET 6.996567 0.000000 0.000000
										CHANNELS 3 Xrotation Yrotation Zrotation
										JOINT LeftHandMiddle3
										{
											OFFSET 7.015945 0.000000 0.000000
											CHANNELS 3 Xrotation Yrotation Zrotation
											JOINT LeftHandMiddle4
											{
												OFFSET 7.721573 0.000000 0.000000
												CHANNELS 3 Xrotation Yrotation Zrotation
												End Site
												{
													OFFSET -4.651108 6.158463 0.251582
												}
											}
										}
									}
								}
								JOINT LeftHandIndex1
								{
									OFFSET 21.310577 -0.490082 6.209344
									CHANNELS 3 Xrotation Yrotation Zrotation
									JOINT LeftHandIndex2
									{
										OFFSET 7.536453 0.000000 0.000000
										CHANNELS 3 Xrotation Yrotation Zrotation
										JOINT LeftHandIndex3
										{
											OFFSET 7.512344 0.000000 0.000000
											CHANNELS 3 Xrotation Yrotation Zrotation
											JOINT LeftHandIndex4
											{
												OFFSET 10.212402 0.000000 0.000001
												CHANNELS 3 Xrotation Yrotation Zrotation
												End Site
												{
													OFFSET -5.180801 8.690506 1.388433
												}
											}
										}
									}
								}
							}
						}
					}
				}
				JOINT RightShoulder
				{
					OFFSET -17.399500 24.608795 1.168800
					CHANNELS 3 Xrotation Yrotation Zrotation
					JOINT RightArm
					{
						OFFSET -18.980635 5.765305 1.818600
						CHANNELS 3 Xrotation Yrotation Zrotation
						JOINT RightForeArm
						{
							OFFSET -49.290169 0.000000 0.000000
							CHANNELS 3 Xrotation Yrotation Zrotation
							JOINT RightHand
							{
								OFFSET -31.562012 0.000000 0.000000
								CHANNELS 3 Xrotation Yrotation Zrotation
								JOINT RightHandThumb1
								{
									OFFSET -6.133995 -4.388519 7.076070
									CHANNELS 3 Xrotation Yrotation Zrotation
									JOINT RightHandThumb2
									{
										OFFSET -6.037666 -3.485840 3.485847
										CHANNELS 3 Xrotation Yrotation Zrotation
										JOINT RightHandThumb3
										{
											OFFSET -6.496506 -3.750763 3.750761
											CHANNELS 3 Xrotation Yrotation Zrotation
											JOINT RightHandThumb4
											{
												OFFSET -5.616882 -3.242905 3.242910
												CHANNELS 3 Xrotation Yrotation Zrotation
												End Site
												{
													OFFSET 1.254608 7.132141 0.375429
												}
											}
										}
									}
								}
								JOINT RightHandIndex1
								{
									OFFSET -21.310577 -0.490082 6.209344
									CHANNELS 3 Xrotation Yrotation Zrotation
									JOINT RightHandIndex2
									{
										OFFSET -7.536453 0.000000 0.000000
										CHANNELS 3 Xrotation Yrotation Zrotation
										JOINT RightHandIndex3
										{
											OFFSET -7.512344 0.000000 0.000000
											CHANNELS 3 Xrotation Yrotation Zrotation
											JOINT RightHandIndex4
											{
												OFFSET -10.212402 0.000000 0.000001
												CHANNELS 3 Xrotation Yrotation Zrotation
												End Site
												{
													OFFSET 5.180801 8.690506 1.388433
												}
											}
										}
									}
								}
								JOINT RightHandMiddle1
								{
									OFFSET -23.373947 0.000000 0.000001
									CHANNELS 3 Xrotation Yrotation Zrotation
									JOINT RightHandMiddle2
									{
										OFFSET -6.996567 0.000000 0.000000
										CHANNELS 3 Xrotation Yrotation Zrotation
										JOINT RightHandMiddle3
										{
											OFFSET -7.015945 0.000000 0.000000
											CHANNELS 3 Xrotation Yrotation Zrotation
											JOINT RightHandMiddle4
											{
												OFFSET -7.721573 0.000000 0.000000
												CHANNELS 3 Xrotation Yrotation Zrotation
												End Site
												{
													OFFSET 4.651108 6.158463 0.251582
												}
											}
										}
									}
								}
								JOINT RightHandRing1
								{
									OFFSET -22.726120 -0.094986 -6.500475
									CHANNELS 3 Xrotation Yrotation Zrotation
									JOINT RightHandRing2
									{
										OFFSET -6.408615 0.000000 0.000000
										CHANNELS 3 Xrotation Yrotation Zrotation
										JOINT RightHandRing3
										{
											OFFSET -6.150223 0.000000 0.000000
											CHANNELS 3 Xrotation Yrotation Zrotation
											JOINT RightHandRing4
											{
												OFFSET -6.145386 0.000000 0.000000
												CHANNELS 3 Xrotation Yrotation Zrotation
												End Site
												{
													OFFSET 3.671402 4.923981 -0.202372
												}
											}
										}
									}
								}
								JOINT RightHandPinky1
								{
									OFFSET -18.920792 -0.453171 -11.426712
									CHANNELS 3 Xrotation Yrotation Zrotation
									JOINT RightHandPinky2
									{
										OFFSET -4.919586 0.000000 0.000000
										CHANNELS 3 Xrotation Yrotation Zrotation
										JOINT RightHandPinky3
										{
											OFFSET -5.233047 0.000000 0.000000
											CHANNELS 3 Xrotation Yrotation Zrotation
											JOINT RightHandPinky4
											{
												OFFSET -5.571716 0.000000 0.000000
												CHANNELS 3 Xrotation Yrotation Zrotation
												End Site
												{
													OFFSET 3.459808 4.342407 -0.466164
												}
											}
										}
									}
								}
							}
						}
					}
				}
			}
		}
	}
	JOINT LeftUpLeg
	{
		OFFSET 19.899099 -7.885101 -3.429500
		CHANNELS 3 Xrotation Yrotation Zrotation
		JOINT LeftLeg
		{
			OFFSET 1.745560 -36.997807 10.304700
			CHANNELS 3 Xrotation Yrotation Zrotation
			JOINT LeftFoot
			{
				OFFSET -1.745558 -29.803308 -13.615400
				CHANNELS 3 Xrotation Yrotation Zrotation
				JOINT LeftToeBase
				{
					OFFSET 1.181900 -18.539904 15.226099
					CHANNELS 3 Xrotation Yrotation Zrotation
					JOINT LeftToe_End
					{
						OFFSET -0.863701 1.402801 16.534700
						CHANNELS 3 Xrotation Yrotation Zrotation
						End Site
						{
							OFFSET 0.000000 16.616566 0.000000
						}
					}
				}
			}
		}
	}
	JOINT RightUpLeg
	{
		OFFSET -19.899099 -7.885101 -3.429500
		CHANNELS 3 Xrotation Yrotation Zrotation
		JOINT RightLeg
		{
			OFFSET -1.745560 -36.997807 10.304700
			CHANNELS 3 Xrotation Yrotation Zrotation
			JOINT RightFoot
			{
				OFFSET 1.745558 -29.803308 -13.615400
				CHANNELS 3 Xrotation Yrotation Zrotation
				JOINT RightToeBase
				{
					OFFSET -1.181900 -18.539904 15.226099
					CHANNELS 3 Xrotation Yrotation Zrotation
					JOINT RightToe_End
					{
						OFFSET 0.863701 1.402801 16.534700
						CHANNELS 3 Xrotation Yrotation Zrotation
						End Site
						{
							OFFSET 0.000000 16.616566 0.000000
						}
					}
				}
			}
		}
	}
}
MOTION
Frames: 5
Frame Time: 0.033333
-2.568673 95.372185 0.870444 -3.264027 -48.996946 1.892546 7.107952 1.575050 0.813801 -5.359273 2.488617 -2.501819 -5.293226 2.367111 -2.675752 4.808501 28.658548 2.712911 1.339377 16.141774 -2.978241 0.000000 0.000000 0.000000 3.884020 -8.317807 0.943043 4.744796 0.765274 -79.353438 -1.157617 -17.223997 -0.406281 -3.811002 2.475443 1.756375 10.766357 -0.280009 15.892114 -0.887631 26.406382 -5.960729 -4.789980 4.326538 -1.676144 -0.000001 -0.000002 0.000000 -4.039844 12.927907 -17.158446 8.430586 2.591475 -31.031144 5.099759 2.549125 -14.266354 0.000000 0.000001 0.000003 -3.661127 10.861936 -6.839180 2.989354 3.450637 -29.219840 1.678865 2.529528 -15.350485 -0.000003 -0.000001 0.000003 -1.902750 4.427075 -9.349587 -0.021952 4.077067 -23.702064 -0.530103 0.896736 -11.496278 -0.000005 -0.000003 0.000001 1.195094 0.646274 -5.021710 -1.786230 1.903178 -16.720993 -1.604407 3.842284 -12.990674 -0.000002 -0.000000 -0.000003 4.083335 7.185823 1.081689 2.319043 -0.385256 80.168505 -1.135310 17.183072 0.403199 -1.343777 -2.622670 -2.701263 15.807085 -2.796277 -17.234888 -2.094594 -31.114493 7.333211 -6.639225 -3.827389 2.610668 0.000000 0.000002 0.000002 2.355756 -3.637027 8.331832 -2.159476 -2.448703 18.527375 -1.894995 -4.842742 14.309626 0.000001 -0.000003 -0.000002 -1.983019 -5.682358 13.528685 0.261781 -5.084577 26.883985 -0.658457 -1.110476 11.605272 0.000000 0.000000 -0.000001 -4.972231 -10.103536 10.694132 4.017169 -4.051261 33.181749 2.114949 -3.153862 15.516955 -0.000002 0.000004 -0.000001 -6.473197 -11.328647 23.223512 10.720616 -2.557992 34.779088 6.421251 -3.075635 15.235808 -0.000000 0.000003 0.000003 0.941176 5.243939 -5.252721 16.566947 5.877960 -0.473299 11.453764 2.554422 -1.330845 -31.839897 -0.024287 1.129626 0.000000 0.000003 0.000000 -24.414004 -1.883729 -6.593786 24.144451 -0.213581 -0.448359 29.550161 -1.514691 1.973803 -29.918049 -0.008743 0.045236 -0.000000 0.000003 0.000000 
-2.672442 95.336121 0.939621 -3.175791 -49.053968 2.002807 7.052747 1.602617 0.939262 -5.343051 2.487289 -2.513780 -5.278209 2.365767 -2.687941 4.694075 28.731423 2.659936 1.356881 16.209789 -3.024937 -0.000000 0.000000 0.000000 3.878485 -8.283218 0.902393 5.091269 1.006952 -79.363848 -1.108398 -17.270321 -0.365803 -3.809758 2.522102 1.749858 10.761997 -0.296538 15.888569 -0.894587 26.390567 -5.961341 -4.796005 4.310926 -1.681046 0.000005 -0.000000 0.000001 -4.035146 12.949399 -17.142066 8.430337 2.591191 -31.013587 5.099452 2.548814 -14.248826 -0.000001 0.000000 -0.000002 -3.661445 10.883565 -6.821590 2.989416 3.450198 -29.202327 1.678763 2.529216 -15.332999 -0.000006 -0.000003 0.000003 -1.902827 4.426764 -9.332102 -0.022492 4.076937 -23.684550 -0.530072 0.896426 -11.478791 -0.000001 -0.000002 0.000004 1.191939 0.615263 -5.004188 -1.786229 1.902853 -16.703520 -1.604981 3.842073 -12.973212 0.000000 0.000001 0.000001 4.085701 7.273554 1.043419 2.342440 -0.489463 80.116207 -1.349034 17.182070 0.410765 -1.341383 -2.663245 -2.684152 15.802140 -2.776274 -17.231283 -2.103139 -31.095471 7.333240 -6.646492 -3.808783 2.617199 0.000001 -0.000003 -0.000002 2.351451 -3.595781 8.310637 -2.159493 -2.447988 18.491011 -1.896216 -4.842360 14.273162 -0.000001 -0.000003 -0.000001 -1.983142 -5.682002 13.507736 0.261143 -5.084453 26.862946 -0.658427 -1.110103 11.584319 0.000001 0.000000 -0.000001 -4.972426 -10.115993 10.673080 4.017233 -4.050752 33.160756 2.114844 -3.153495 15.495978 -0.000003 0.000004 -0.000007 -6.461563 -11.355211 23.204818 10.720258 -2.557647 34.758075 6.420871 -3.075262 15.214762 -0.000002 0.000001 -0.000001 1.071899 5.179709 -5.276999 16.520510 6.048849 -0.526847 11.253516 2.607394 -1.404470 -31.786642 0.017036 1.064710 -0.000001 -0.000004 -0.000000 -24.473186 -1.719918 -6.598941 24.347329 -0.243524 -0.452129 29.351235 -1.508848 2.010155 -29.943385 -0.009965 0.047262 -0.000000 0.000002 0.000000 
-2.781217 95.313133 1.021481 -3.199217 -49.124291 1.978105 7.160790 1.666700 1.181274 -5.376607 2.490504 -2.562462 -5.314220 2.373450 -2.734716 4.619426 28.795555 2.589160 1.390656 16.283268 -3.059551 -0.000000 -0.000000 0.000000 3.864253 -8.219505 0.811161 5.540333 1.210577 -79.287274 -1.058359 -17.392460 -0.339415 -3.804948 2.609578 1.724629 10.750921 -0.343909 15.875170 -0.917193 26.345085 -5.959214 -4.813541 4.265632 -1.695345 0.000003 -0.000001 -0.000001 -4.015350 13.012170 -17.095745 8.429610 2.590313 -30.962733 5.098569 2.547919 -14.197973 -0.000001 0.000000 -0.000006 -3.657485 10.946513 -6.771555 2.989638 3.448994 -29.151555 1.678620 2.528288 -15.282236 -0.000004 -0.000002 0.000001 -1.903038 4.426948 -9.281361 -0.022246 4.076493 -23.633848 -0.529997 0.895500 -11.428045 -0.000001 -0.000001 0.000008 1.182770 0.525238 -4.953379 -1.786234 1.901813 -16.652867 -1.606679 3.841494 -12.922426 -0.000006 0.000002 -0.000003 4.087198 7.365929 0.988758 2.337524 -0.531126 80.073333 -1.487081 17.151134 0.419688 -1.343820 -2.678528 -2.699605 15.790154 -2.719104 -17.215825 -2.135708 -31.043015 7.327963 -6.669793 -3.754744 2.631751 0.000004 -0.000002 -0.000000 2.338994 -3.476043 8.249016 -2.159572 -2.445863 18.385433 -1.899778 -4.841226 14.167263 -0.000003 0.000000 0.000001 -1.983262 -5.680980 13.446882 0.259318 -5.084132 26.801918 -0.658339 -1.108984 11.523438 -0.000002 0.000002 -0.000004 -4.968641 -10.152364 10.612829 4.017379 -4.049259 33.099790 2.114527 -3.152379 15.435058 0.000001 0.000000 -0.000002 -6.427930 -11.432415 23.150525 10.719344 -2.556657 34.696948 6.419736 -3.074770 15.153775 -0.000003 0.000000 0.000004 1.167251 5.182964 -5.238529 16.563079 5.992215 -0.541669 11.187073 2.677111 -1.466674 -31.862266 0.082533 0.935487 -0.000000 -0.000003 -0.000000 -24.415399 -1.521336 -6.554036 24.484396 -0.317549 -0.451530 29.229668 -1.514607 2.064848 -29.972540 -0.035044 0.090613 0.000000 -0.000003 -0.000000 
-2.905221 95.273750 1.110132 -3.088843 -49.224135 2.103117 7.116407 1.748004 1.419645 -5.367302 2.520111 -2.639561 -5.307578 2.409945 -2.812407 4.484608 28.785638 2.637327 1.483219 16.334428 -3.156439 -0.000000 -0.000000 -0.000000 3.861436 -8.115250 0.822731 5.927630 1.466035 -79.260555 -0.852499 -17.492050 -0.253013 -3.796535 2.703016 1.662765 10.737177 -0.421517 15.855379 -0.960637 26.275847 -5.958227 -4.843828 4.192792 -1.713980 -0.000000 -0.000001 0.000003 -3.983767 13.113040 -17.021320 8.429698 2.588848 -30.881058 5.097126 2.546450 -14.116323 -0.000001 0.000000 -0.000006 -3.645497 11.047766 -6.692286 2.989993 3.448076 -29.070067 1.678461 2.526811 -15.200688 -0.000002 0.000000 0.000003 -1.903381 4.427208 -9.199813 -0.022020 4.075745 -23.552364 -0.529886 0.894015 -11.346616 -0.000002 -0.000003 0.000004 1.168078 0.380610 -4.871803 -1.786231 1.900199 -16.571417 -1.609435 3.840590 -12.840822 -0.000003 -0.000001 0.000001 4.065139 7.319238 1.047091 2.301807 -0.524480 79.945056 -1.585434 17.178363 0.434498 -1.337597 -2.795729 -2.626318 15.779839 -2.624315 -17.194398 -2.192529 -30.961029 7.320584 -6.710841 -3.668543 2.650562 0.000001 -0.000003 -0.000003 2.311705 -3.284449 8.149671 -2.159627 -2.442481 18.215797 -1.902309 -4.839833 13.997341 0.000003 -0.000005 -0.000002 -1.982957 -5.679340 13.349168 0.256373 -5.083573 26.703895 -0.658400 -1.109071 11.425581 -0.000002 -0.000001 -0.000004 -4.957698 -10.210877 10.516896 4.017631 -4.046892 33.001842 2.114066 -3.150626 15.337139 -0.000000 0.000003 0.000000 -6.374228 -11.556563 23.063290 10.717844 -2.555093 34.598859 6.417888 -3.075002 15.055897 -0.000001 -0.000001 0.000007 1.260065 5.147160 -5.277054 16.540630 6.050019 -0.579291 11.049670 2.679053 -1.485340 -31.848124 0.093110 0.913340 -0.000000 -0.000000 -0.000000 -24.501516 -1.385077 -6.549860 24.699841 -0.295170 -0.453759 29.046991 -1.537309 2.079958 -30.040196 -0.063229 0.140893 0.000000 0.000001 0.000000 
-3.038574 95.243225 1.212074 -3.025826 -49.255643 2.187531 7.083498 1.828546 1.663387 -5.356869 2.541671 -2.708250 -5.299643 2.438893 -2.881308 4.531845 28.755660 2.577348 1.485675 16.362859 -3.196845 -0.000000 -0.000000 0.000000 3.863038 -7.999021 0.880747 6.316966 1.832129 -79.299268 -0.792243 -17.645961 -0.156119 -3.782890 2.749887 1.520347 10.723101 -0.527564 15.830686 -1.019081 26.182584 -5.956987 -4.887001 4.094620 -1.734300 0.000001 -0.000002 0.000000 -3.941684 13.249033 -16.921095 8.429830 2.586902 -30.771081 5.095190 2.544472 -14.006420 -0.000000 0.000002 -0.000005 -3.629828 11.184192 -6.585472 2.990503 3.448245 -28.960316 1.678156 2.524794 -15.090956 -0.000004 -0.000000 0.000002 -1.903845 4.427242 -9.090012 -0.022181 4.074791 -23.442613 -0.529724 0.892025 -11.236876 -0.000001 0.000000 0.000008 1.150521 0.185681 -4.762033 -1.786229 1.898005 -16.461765 -1.613088 3.839327 -12.730976 0.000005 0.000001 0.000001 4.049275 7.349781 0.993866 2.244309 -0.542662 79.899266 -1.814358 17.111866 0.444067 -1.342748 -2.839289 -2.659940 15.765916 -2.496665 -17.165536 -2.268981 -30.850663 7.310853 -6.767554 -3.553271 2.676568 -0.000000 -0.000002 -0.000003 2.276189 -3.026304 8.016037 -2.159731 -2.437913 17.987353 -1.902184 -4.838410 13.768730 -0.000002 -0.000003 -0.000002 -1.982646 -5.677141 13.217525 0.254552 -5.082720 26.572081 -0.658441 -1.109144 11.293805 -0.000003 0.000002 -0.000001 -4.943264 -10.289747 10.387656 4.017976 -4.043688 32.869954 2.113410 -3.148242 15.205321 0.000002 0.000001 -0.000005 -6.302508 -11.724038 22.945930 10.715864 -2.554348 34.466907 6.415426 -3.074946 14.924107 0.000001 -0.000001 0.000004 1.401659 5.082439 -5.300821 16.498790 6.141989 -0.597517 10.909916 2.701664 -1.554451 -31.834036 0.131428 0.864916 0.000000 -0.000001 0.000000 -24.525763 -1.452708 -6.582550 24.914606 -0.204501 -0.457969 28.800971 -1.551671 2.048944 -30.072541 -0.083653 0.161367 0.000000 0.000000 0.000000 
